<?xml version="1.0" encoding="utf-8"?>
<!-- Generator: Adobe Illustrator 27.4.0, SVG Export Plug-In . SVG Version: 6.00 Build 0)  -->
<svg version="1.1" id="Calque_1" xmlns="http://www.w3.org/2000/svg" xmlns:xlink="http://www.w3.org/1999/xlink" x="0px" y="0px"
	 viewBox="0 0 720 81.9" style="enable-background:new 0 0 720 81.9;" xml:space="preserve">
<style type="text/css">
	.st0{fill:none;}
	.st1{fill:#1E2040;}
	.st2{fill:#A3191B;}
</style>
<g>
	<polygon class="st0" points="631.1,52.6 684.9,52.6 657.9,10.2 	"/>
	<path class="st0" d="M421.1,19.2c-3.7-2.4-8.6-4.1-14.8-5.2c-6.2-1.1-13.7-1.7-22.7-1.7c-12,0-21.5,1-28.5,3
		c-7,2-12.1,5.1-15.1,9.3c-3.1,4.2-4.6,9.7-4.6,16.3c0,6.7,1.5,12.1,4.6,16.3c3.1,4.2,8.1,7.3,15.1,9.3c7,2,16.6,3,28.5,3
		c9,0,16.5-0.6,22.7-1.7c6.2-1.1,11.1-2.9,14.8-5.2c3.7-2.4,6.4-5.3,8.1-8.9c1.7-3.6,2.5-7.9,2.5-12.8c0-5-0.8-9.3-2.5-12.9
		C427.5,24.5,424.8,21.6,421.1,19.2z"/>
	<path class="st0" d="M539.7,16c-2.8-2.2-7.3-3.4-13.4-3.4h-63.5v29.2h63.5c6.1,0,10.6-1.1,13.4-3.4c2.8-2.2,4.3-6,4.3-11.2
		C544,22,542.6,18.2,539.7,16z"/>
	<path class="st1" d="M550.9,6.1c-2.7-2.1-6-3.6-9.9-4.6c-3.9-1-8.4-1.5-13.5-1.5h-79.4v81.9h14.7V54.4h64.8
		c6.7,0,12.4-0.9,17.1-2.8c4.7-1.9,8.3-4.9,10.8-9.1c2.5-4.2,3.7-9.5,3.7-16c0-4.8-0.7-8.9-2.1-12.3C555.6,10.9,553.6,8.2,550.9,6.1
		z M539.7,38.4c-2.8,2.2-7.3,3.4-13.4,3.4h-63.5V12.6h63.5c6.1,0,10.6,1.1,13.4,3.4c2.8,2.2,4.3,6,4.3,11.3
		C544,32.5,542.6,36.2,539.7,38.4z"/>
	<path class="st1" d="M667,0h-4.2h-9.5H649l-39.4,60.9V0H596v81.9h13.6h2.9l11.9-18.7h67.2l11.9,18.7H720L667,0z M631.1,52.6
		l26.9-42.4l26.9,42.4H631.1z"/>
	<path class="st2" d="M577.6,0c-4.5,0-8.2,3.7-8.2,8.2c0,4.5,3.7,8.2,8.2,8.2c4.5,0,8.2-3.7,8.2-8.2C585.7,3.7,582.1,0,577.6,0z"/>
	<path class="st1" d="M418.8,4.4C409.6,1.5,397.9,0,383.6,0c-14.3,0-26.1,1.5-35.3,4.4c-9.2,2.9-16,7.4-20.5,13.3
		c-4.4,6-6.7,13.8-6.7,23.3c0,9.4,2.2,17.2,6.7,23.2c4.4,6,11.3,10.5,20.5,13.4c9.2,2.9,21,4.4,35.3,4.4c14.2,0,26-1.5,35.2-4.4
		c8.3-2.6,14.6-6.5,19.1-11.6v-50C433.4,10.8,427.1,7,418.8,4.4z M429.2,53.8c-1.7,3.6-4.4,6.6-8.1,8.9c-3.7,2.4-8.6,4.1-14.8,5.2
		c-6.2,1.1-13.7,1.7-22.7,1.7c-12,0-21.5-1-28.5-3c-7-2-12.1-5.1-15.1-9.3c-3.1-4.2-4.6-9.6-4.6-16.3c0-6.7,1.5-12.1,4.6-16.3
		c3.1-4.2,8.1-7.3,15.1-9.3c7-2,16.6-3,28.5-3c9,0,16.5,0.6,22.7,1.7c6.2,1.1,11.1,2.9,14.8,5.2c3.7,2.4,6.4,5.3,8.1,8.9
		c1.7,3.6,2.5,7.9,2.5,12.9C431.7,45.9,430.9,50.2,429.2,53.8z"/>
	<path class="st1" d="M220.1,38.7c0,7-1.5,12.8-4.5,17.4c-3,4.6-7.5,7.9-13.7,10.1c-6.1,2.2-13.9,3.3-23.3,3.3
		c-9.5,0-17.3-1.1-23.4-3.3C149,64,144.5,60.6,141.5,56c-3-4.6-4.4-10.4-4.4-17.4V0h-14.4v41.3c0,9.4,2.2,17,6.7,23
		c4.5,6,10.9,10.4,19.3,13.3c8.4,2.9,18.3,4.4,29.9,4.4c11.6,0,21.6-1.5,29.9-4.4c8.4-2.9,14.8-7.3,19.3-13.3
		c4.5-5.9,6.7-13.6,6.7-23V24.9h-14.4V38.7z"/>
	<path class="st1" d="M333.5,0h-99h-14.4h0v12.6h14.4v0h35v69.3h14.7V12.6h32.9C321,7.4,326.5,3.2,333.5,0L333.5,0z"/>
	<polygon class="st1" points="97.8,33 29.3,33 29.3,45.8 97.8,45.8 97.8,45.8 112.4,45.8 112.4,0 97.8,0 	"/>
	<rect x="97.8" y="58.2" class="st1" width="14.7" height="23.7"/>
	<polygon class="st1" points="14.7,0 0,0 0,81.9 14.7,81.9 14.7,45.8 14.7,45.8 14.7,33 14.7,33 	"/>
</g>
</svg>
